<?xml version="1.0" encoding="utf-8"?>
<!-- Generator: Adobe Illustrator 19.2.0, SVG Export Plug-In . SVG Version: 6.00 Build 0)  -->
<svg version="1.1" id="Text" xmlns="http://www.w3.org/2000/svg" xmlns:xlink="http://www.w3.org/1999/xlink" x="0px" y="0px"
	 viewBox="0 0 300 300" style="enable-background:new 0 0 300 300;" xml:space="preserve">
<style type="text/css">
	.st0{fill:#4F4B5A;}
	.st1{fill:#66A9A5;}
</style>
<g id="color-2">
	<path class="st0" d="M155,296.9c18.3-10.1,48.2-7.9,62.7,0l11.1-17.1c-14.4-7.9-62.1-6.2-73.7,9.5c-10-15.9-59.3-17.4-73.7-9.5
		l11.1,17.1C106.8,289,136.7,286.9,155,296.9z"/>
	<path class="st0" d="M155,283.8c-3.6-9.5-25.9-23.9-69-29.9l0.9,6.1C86.9,260,142.9,263,155,283.8z"/>
	<g>
		<path class="st0" d="M135.7,223.9c4.5-5.1,21.2-8.4,50.1-2.7l-1.3,2.2C184.5,223.4,148.1,213.7,135.7,223.9z"/>
	</g>
	<g>
		<path class="st0" d="M135.7,223.9c-0.7-6.8-12.6-19-39.6-30.9l-0.2,2.6C95.9,195.6,131.4,208.4,135.7,223.9z"/>
	</g>
	<g>
		<path class="st0" d="M135.4,154.3c-1.1-4.3-9.9-11-28.4-16l0.1,1.7C107.2,140,131.2,144.8,135.4,154.3z"/>
	</g>
	<g>
		<path class="st0" d="M135.5,155c2.3-3.8,12.7-7.6,31.9-6.9l-0.6,1.6C166.7,149.7,142.4,147.2,135.5,155z"/>
	</g>
	<g>
		<path class="st0" d="M137.6,94.1c-0.9-3.6-8.3-9.2-23.8-13.4l0.1,1.4C113.9,82.1,134,86.1,137.6,94.1z"/>
	</g>
	<g>
		<path class="st0" d="M137.7,94.7c2-3.1,10.7-6.3,26.7-5.8l-0.5,1.3C163.8,90.2,143.4,88.1,137.7,94.7z"/>
	</g>
	<g>
		<path class="st0" d="M138,46.9c-0.7-2.7-6.3-7-18.1-10.2l0.1,1.1C120,37.7,135.3,40.8,138,46.9z"/>
	</g>
	<g>
		<path class="st0" d="M138,47.3c1.5-2.4,8.1-4.8,20.3-4.4l-0.4,1C157.9,43.9,142.4,42.3,138,47.3z"/>
	</g>
</g>
<g id="color-1">
	<path class="st1" d="M155,285.9c-5.2-8.8-30.1-22.6-73.7-21.2l2.3,7.9C83.6,272.6,139.6,267.4,155,285.9z"/>
	<path class="st1" d="M155,287c5.2-8.8,30.1-24.6,73.7-23.2c0,0-2,10-2.3,9.9C208.7,271.1,170.4,268.5,155,287z"/>
	<path class="st1" d="M155,280.9c-2.9-9.8-23.7-24.6-66.7-34.8l0.4,3.9C88.8,249.9,144.5,259.2,155,280.9z"/>
	<g>
		<path class="st1" d="M165.4,185.2c-4.5-5.1-21.2-8.4-50.1-2.7l1.3,2.2C116.6,184.7,153,175,165.4,185.2z"/>
	</g>
	<g>
		<path class="st1" d="M165.3,186.4c0.8-6.8,12.9-18.8,40-30.4l0.1,2.6C205.4,158.6,169.8,171,165.3,186.4z"/>
	</g>
	<g>
		<path class="st1" d="M167.2,122.9c-2.1-3.1-11-5.8-27-4.5l0.6,1.3C140.7,119.6,161.1,116.6,167.2,122.9z"/>
	</g>
	<g>
		<path class="st1" d="M167.4,123.4c0.8-3.6,7.9-9.6,23.2-14.6l0,1.4C190.6,110.2,170.6,115.3,167.4,123.4z"/>
	</g>
	<g>
		<path class="st1" d="M163.7,258.6c-3.5-7.5-21.9-17-57.5-20.4l0.8,3.1C107,241.3,152.8,242.4,163.7,258.6z"/>
	</g>
	<g>
		<path class="st1" d="M164.1,259.9c3.1-7.7,21-18.1,56.5-23.1l-0.6,3.1C219.9,239.9,174.2,243.2,164.1,259.9z"/>
	</g>
	<path class="st1" d="M164.2,69.2c-1.8-2.6-9.2-4.9-22.7-3.8l0.5,1.1C142,66.5,159.1,63.9,164.2,69.2z"/>
	<path class="st1" d="M164.4,69.7c0.7-3.1,6.6-8.1,19.4-12.2l0,1.2C183.8,58.6,167.1,62.8,164.4,69.7z"/>
	<path class="st1" d="M157.5,24.3c-1.4-2-7.1-3.8-17.4-2.9l0.4,0.8C140.5,22.2,153.6,20.3,157.5,24.3z"/>
	<path class="st1" d="M157.7,24.7c0.5-2.3,5.1-6.2,14.9-9.4l0,0.9C172.6,16.2,159.8,19.4,157.7,24.7z"/>
</g>
</svg>
