<?xml version="1.0" encoding="utf-8"?>
<!-- Generator: Adobe Illustrator 19.2.0, SVG Export Plug-In . SVG Version: 6.00 Build 0)  -->
<svg version="1.1" id="board" xmlns="http://www.w3.org/2000/svg" xmlns:xlink="http://www.w3.org/1999/xlink" x="0px" y="0px"
	 viewBox="0 0 100 100" style="enable-background:new 0 0 100 100;" xml:space="preserve">
<style type="text/css">
	.st0{fill:#FF3B77;}
</style>
<path class="st0" d="M22.2,74C36.8,63.5,35.7,50.5,32,49.8c-2.8-0.4-5.9-1.3-8.5-3.7c-5-5-5.2-13.1-0.2-18.1c5-5,13.1-5,18.1,0
	c7.6,7.8,3.9,23.1-2,32.7c-2.6,4.4-6.3,10-15.9,15L22.2,74z M56.9,74c14.6-10.5,13.5-23.5,10-24.2c-3.1-0.4-6.1-1.3-8.7-3.7
	c-5-5-5.2-13.1-0.2-18.1c5-5,13.1-5,18.1,0c7.6,7.8,3.9,23.1-2,32.7c-2.6,4.4-6.3,10-15.7,15L56.9,74z"/>
</svg>
