<?xml version="1.0" encoding="utf-8"?>
<!-- Generator: Adobe Illustrator 19.2.0, SVG Export Plug-In . SVG Version: 6.00 Build 0)  -->
<svg version="1.1" id="board" xmlns="http://www.w3.org/2000/svg" xmlns:xlink="http://www.w3.org/1999/xlink" x="0px" y="0px"
	 viewBox="0 0 100 100" style="enable-background:new 0 0 100 100;" xml:space="preserve">
<style type="text/css">
	.st0{fill:#FF3B77;}
</style>
<path id="open-quote" class="st0" d="M43,25.4C28,36.1,29.1,49.5,32.7,50.2c3.1,0.4,6.3,1.3,8.9,3.8c5.1,5.1,5.4,13.4,0.2,18.5
	c-5.1,5.1-13.4,5.1-18.5,0c-7.8-8-4-23.7,2-33.5c2.7-4.5,6.5-10.3,16.1-15.4L43,25.4z M78.5,25.4c-15,10.7-13.8,24.1-10,24.8
	c2.9,0.4,6,1.3,8.7,3.8c5.1,5.1,5.4,13.4,0.2,18.5c-5.1,5.1-13.4,5.1-18.5,0c-7.8-8-4-23.7,2-33.5c2.7-4.5,6.5-10.3,16.3-15.4
	L78.5,25.4z"/>
</svg>
